<?xml version="1.0" encoding="UTF-8" standalone="no"?>
<!-- Created with Inkscape (http://www.inkscape.org/) -->

<svg
   width="213.33168mm"
   height="182.35353mm"
   viewBox="0 0 213.33168 182.35353"
   version="1.1"
   id="svg5"
   inkscape:version="1.1.1 (3bf5ae0d25, 2021-09-20)"
   sodipodi:docname="keyLock.svg"
   xmlns:inkscape="http://www.inkscape.org/namespaces/inkscape"
   xmlns:sodipodi="http://sodipodi.sourceforge.net/DTD/sodipodi-0.dtd"
   xmlns="http://www.w3.org/2000/svg"
   xmlns:svg="http://www.w3.org/2000/svg">
  <sodipodi:namedview
     id="namedview7"
     pagecolor="#ffffff"
     bordercolor="#666666"
     borderopacity="1.0"
     inkscape:pageshadow="2"
     inkscape:pageopacity="0.0"
     inkscape:pagecheckerboard="0"
     inkscape:document-units="mm"
     showgrid="false"
     inkscape:snap-global="false"
     fit-margin-top="0"
     fit-margin-left="0"
     fit-margin-right="0"
     fit-margin-bottom="0"
     inkscape:zoom="0.52410025"
     inkscape:cx="90.631516"
     inkscape:cy="388.2845"
     inkscape:window-width="1920"
     inkscape:window-height="1017"
     inkscape:window-x="-8"
     inkscape:window-y="-8"
     inkscape:window-maximized="1"
     inkscape:current-layer="layer1" />
  <defs
     id="defs2" />
  <g
     inkscape:label="Layer 1"
     inkscape:groupmode="layer"
     id="layer1"
     transform="translate(36.095589,-14.279085)">
    <path
       id="rect1426"
       style="fill:#afb3b4;fill-opacity:1;stroke-width:27.9955"
       d="m 128.94922,124.70117 c -93.31042,0 -168.429689,75.11927 -168.429689,168.42969 V 438.5625 c 0,93.31042 75.119269,168.42969 168.429689,168.42969 h 36.18164 c 93.31042,0 168.42969,-75.11927 168.42969,-168.42969 V 293.13086 c 0,-93.31042 -75.11927,-168.42969 -168.42969,-168.42969 z m 16.77734,63.88086 c 66.462,0 119.9668,53.5048 119.9668,119.9668 v 103.58594 c 0,66.46199 -53.5048,119.96679 -119.9668,119.96679 -66.461994,0 -119.968748,-53.5048 -119.968748,-119.96679 V 308.54883 c 0,-66.462 53.506754,-119.9668 119.968748,-119.9668 z"
       transform="scale(0.26458333)" />
    <rect
       style="fill:#577a90;fill-opacity:1;stroke-width:4.06501"
       id="rect1452"
       width="147.15894"
       height="100.20943"
       x="-36.095589"
       y="96.423187"
       ry="20.445755"
       rx="18.174004" />
    <rect
       style="fill:#7d99a7;fill-opacity:1;stroke-width:4.06501"
       id="rect1575"
       width="12.116003"
       height="69.035973"
       x="-24.989254"
       y="117.87861"
       rx="0"
       ry="5.5330529" />
    <g
       id="g16488"
       transform="translate(-167.77644,-6.0685096)">
      <path
         id="path7721"
         style="fill:#577a90;fill-opacity:1;stroke-width:15.9029"
         d="M 1144.7812,76.904297 A 159.2035,159.2035 0 0 0 985.57812,236.10742 159.2035,159.2035 0 0 0 1093.5137,386.46875 c 3e-4,8.10483 0.016,235.54579 1.0097,237.86523 1.0118,2.36108 16.1905,51.26962 17.877,54.64258 1.6865,3.37297 20.5744,43.51137 22.9355,45.53516 2.3611,2.02375 11.1312,5.39588 13.4922,5.05859 2.3611,-0.33713 15.5165,-8.43268 18.2149,-10.11914 2.6984,-1.6865 17.8761,-16.5276 19.5625,-18.88867 1.6865,-2.36107 13.4916,-21.92426 13.1543,-23.27344 -0.3372,-1.34918 -10.4549,-11.13111 -11.4668,-13.49218 -1.0119,-2.36108 0,-20.57422 0,-20.57422 l -7.3399,-2.00391 -4.8906,-4.05469 -3.0996,-5.1289 -1.3711,-2.92188 -0.5977,-4.17383 -0.059,-3.99414 0.5957,-3.875 0.4864,-2.01172 0.8437,-1.60156 1.1797,-1.60351 1.3496,-1.4336 1.8555,-2.1914 1.7695,-1.60157 2.6153,-2.02539 1.6855,-1.01172 2.3613,-0.50586 4.9746,-0.084 h 2.7832 2.5293 l 1.6875,-0.084 1.2637,-0.42188 1.1817,-0.67383 1.4335,-0.92773 1.6856,-1.0957 1.6875,-1.51954 1.4336,-1.51757 1.3476,-1.26368 0.5918,-0.92773 0.7579,-1.34961 0.5058,-1.01172 0.5059,-0.92773 0.5918,-0.84375 -0.3496,-68.94727 -1.4922,-1.49023 -0.2969,-0.29883 -0.7168,-1.07227 -0.5352,-0.5957 -1.1933,-1.66992 -0.7149,-0.59571 -1.9082,-1.78906 -1.4316,-0.95508 -1.6094,-1.1914 -0.7754,-0.83594 -1.0742,-0.71484 -1.0722,-0.65625 -1.0743,-0.17774 -1.2519,-0.35937 h -1.1914 -1.6114 -1.6679 -2.0274 -1.3125 l -0.7148,-0.35742 -1.7305,-0.41797 -1.0215,-0.34375 -1.0117,-0.54688 -0.8437,-0.63281 -0.7598,-0.7168 -1.0957,-0.80078 -1.0527,-1.01172 -0.8438,-0.88672 -1.1387,-1.60156 -0.6738,-0.7168 -0.5488,-0.58984 -0.4649,-0.92773 -0.2089,-0.46485 -0.084,-1.0957 -0.2539,-0.80078 -0.168,-1.09571 v -0.59179 l -0.3809,-1.30664 -0.041,-0.63281 -0.1269,-1.13672 -0.127,-1.09766 -0.041,-1.30664 v -0.96875 l 0.2949,-2.19336 0.127,-1.8125 v -1.72852 l 0.1679,-1.47656 0.7168,-2.78125 1.3067,-2.95312 1.1816,-1.68555 0.8418,-1.0957 1.1387,-1.22266 1.5176,-1.05469 0.5488,-0.54882 0.5059,-0.50586 0.7168,-0.58985 1.4746,-0.67383 1.2226,-0.58984 1.8145,-0.38086 1.0976,-0.0371 0.5957,-0.0312 1.2539,-0.0898 0.9532,-0.0899 0.9531,-0.0879 0.9551,-0.15039 0.8652,-0.17773 0.7734,-0.0899 0.8067,-0.23828 c 0,0 2.8916,-1.31205 3.9648,-1.78906 1.0733,-0.47701 2.6221,-1.78806 3.6953,-2.86133 1.0733,-1.07327 2.6244,-2.74258 3.3399,-4.41211 0.7155,-1.66953 1.074,-4.88937 1.3125,-6.20117 0.2385,-1.31176 0.1175,-5.72535 -0.4785,-7.03711 -0.5963,-1.31176 -0.1186,-1.66902 -0.834,-2.62305 -0.7155,-0.95399 -1.5499,-2.50485 -2.5039,-3.57812 -0.9541,-1.07327 -2.5048,-2.98162 -3.6973,-3.81641 -1.1925,-0.83474 -1.9087,-1.90785 -3.3398,-2.26562 -1.431,-0.35792 -2.3848,-0.5957 -2.3848,-0.5957 l -0.3574,-40.66407 -0.096,-3.84375 A 159.2035,159.2035 0 0 0 1303.9844,236.10742 159.2035,159.2035 0 0 0 1144.7812,76.904297 Z m 0.037,51.888673 a 110.66586,110.66586 0 0 1 110.0644,99.15625 c -10.6594,7.53813 -23.7648,11.98633 -37.9766,11.98633 h -142.7441 c -14.7733,0 -28.3557,-4.79985 -39.2324,-12.88867 a 110.66586,110.66586 0 0 1 109.8887,-98.25391 z"
         transform="scale(0.26458333)" />
      <rect
         style="fill:#7d99a7;fill-opacity:1;stroke:none;stroke-width:4.06501"
         id="rect14937"
         width="7.1938767"
         height="50.73576"
         x="294.06549"
         y="106.39365"
         ry="3.5969386" />
    </g>
    <circle
       style="fill:#364c5a;fill-opacity:1;stroke:none;stroke-width:4.06501"
       id="path33330"
       cx="39.490795"
       cy="171.34615"
       r="7.1394229" />
    <path
       sodipodi:type="star"
       style="fill:#364c5a;fill-opacity:1;stroke:none;stroke-width:15.3638"
       id="path33356"
       inkscape:flatsided="true"
       sodipodi:sides="3"
       sodipodi:cx="118.72804"
       sodipodi:cy="665.14685"
       sodipodi:r1="280.711"
       sodipodi:r2="243.10274"
       sodipodi:arg1="0.78539816"
       sodipodi:arg2="1.8325957"
       inkscape:rounded="0"
       inkscape:randomized="0"
       d="M 317.22069,863.6395 -152.41796,737.8002 191.38139,394.00085 Z"
       transform="matrix(0.04250778,-0.01140477,0.01140477,0.04250778,26.770841,155.3973)"
       inkscape:transform-center-x="-0.9812435"
       inkscape:transform-center-y="-2.5219173" />
  </g>
</svg>
