<?xml version="1.0" encoding="UTF-8" standalone="no"?>
<!-- Created with Inkscape (http://www.inkscape.org/) -->

<svg
   width="41.272739mm"
   height="51.453484mm"
   viewBox="0 0 41.272739 51.453484"
   version="1.1"
   id="svg5"
   inkscape:version="1.1.1 (3bf5ae0d25, 2021-09-20)"
   sodipodi:docname="logo.svg"
   xmlns:inkscape="http://www.inkscape.org/namespaces/inkscape"
   xmlns:sodipodi="http://sodipodi.sourceforge.net/DTD/sodipodi-0.dtd"
   xmlns="http://www.w3.org/2000/svg"
   xmlns:svg="http://www.w3.org/2000/svg">
  <sodipodi:namedview
     id="namedview7"
     pagecolor="#ffffff"
     bordercolor="#666666"
     borderopacity="1.0"
     inkscape:pageshadow="2"
     inkscape:pageopacity="0.0"
     inkscape:pagecheckerboard="0"
     inkscape:document-units="mm"
     showgrid="false"
     inkscape:snap-global="false"
     inkscape:zoom="0.25"
     inkscape:cx="-106"
     inkscape:cy="102"
     inkscape:window-width="1904"
     inkscape:window-height="991"
     inkscape:window-x="0"
     inkscape:window-y="10"
     inkscape:window-maximized="0"
     inkscape:current-layer="layer1"
     fit-margin-top="0"
     fit-margin-left="0"
     fit-margin-right="0"
     fit-margin-bottom="0" />
  <defs
     id="defs2">
    <rect
       x="-724"
       y="-500"
       width="608"
       height="204"
       id="rect134597" />
  </defs>
  <g
     inkscape:label="Layer 1"
     inkscape:groupmode="layer"
     id="layer1"
     transform="translate(240.89558,135.50887)">
    <path
       id="path26286"
       style="fill:#0b1728;fill-opacity:1;stroke:none;stroke-width:0.25311px;stroke-linecap:butt;stroke-linejoin:miter;stroke-opacity:1"
       d="m -226.48364,-135.50887 -13.73318,17.53725 11.45618,16.55151 -12.13494,17.300455 26.82322,0.06427 13.79845,-17.448265 -11.51453,-16.48774 12.1656,-17.51748 z m 5.6317,4.49072 h 12.70691 l -6.33121,9.08279 z" />
    <path
       style="fill:#ffffff;fill-opacity:0.453271;stroke:none;stroke-width:0.25311px;stroke-linecap:butt;stroke-linejoin:miter;stroke-opacity:1"
       d="m -220.85213,-131.01823 h 12.70728 l -6.33127,9.08302 z"
       id="path26288" />
    <path
       style="fill:#fce2db;fill-opacity:1;stroke:none;stroke-width:0.264583px;stroke-linecap:butt;stroke-linejoin:miter;stroke-opacity:1"
       d="m -235.26243,-118.19092 9.69036,-12.30312 8.40052,12.07161 -8.96276,13.03073 z"
       id="path26290" />
    <path
       style="fill:#fce2db;fill-opacity:1;stroke:none;stroke-width:0.264583px;stroke-linecap:butt;stroke-linejoin:miter;stroke-opacity:1"
       d="m -223.42809,-101.06446 9.12057,-13.16637 9.14396,12.97928 -9.68184,12.230922 z"
       id="path26292" />
    <path
       style="fill:#ffffff;fill-opacity:1;stroke:none;stroke-width:0.25311px;stroke-linecap:butt;stroke-linejoin:miter;stroke-opacity:1"
       d="m -232.23892,-88.465532 6.27479,-9.095427 6.34906,9.063788 z"
       id="path26294" />
    <path
       style="fill:#a5c9ca;fill-opacity:1;stroke:none;stroke-width:0.264583px;stroke-linecap:butt;stroke-linejoin:miter;stroke-opacity:1"
       d="m -233.37727,-118.02556 8.68218,-11.14717 7.52354,10.7503 -8.06472,11.722 z"
       id="path26296"
       sodipodi:nodetypes="ccccc" />
    <path
       style="fill:#a084cf;fill-opacity:1;stroke:none;stroke-width:0.264583px;stroke-linecap:butt;stroke-linejoin:miter;stroke-opacity:1"
       d="m -222.44588,-102.45593 8.13836,-11.7749 9.14396,12.97928 -8.79033,11.083585 z"
       id="path26298"
       sodipodi:nodetypes="ccccc" />
    <path
       style="fill:#ffffff;fill-opacity:0.453271;stroke:none;stroke-width:0.25311px;stroke-linecap:butt;stroke-linejoin:miter;stroke-opacity:1"
       d="m -220.85213,-131.01823 h 12.70728 l -6.33127,9.08302 z"
       id="path26314" />
    <path
       style="fill:#fce2db;fill-opacity:1;stroke:none;stroke-width:0.264583px;stroke-linecap:butt;stroke-linejoin:miter;stroke-opacity:1"
       d="m -235.26243,-118.19092 9.69036,-12.30312 8.40052,12.07161 -8.96276,13.03073 z"
       id="path26316" />
    <path
       style="fill:#fce2db;fill-opacity:1;stroke:none;stroke-width:0.264583px;stroke-linecap:butt;stroke-linejoin:miter;stroke-opacity:1"
       d="m -223.42809,-101.06446 9.12057,-13.16637 9.14396,12.97928 -9.68184,12.230922 z"
       id="path26318" />
    <path
       style="fill:#ffffff;fill-opacity:1;stroke:none;stroke-width:0.25311px;stroke-linecap:butt;stroke-linejoin:miter;stroke-opacity:1"
       d="m -232.23892,-88.465532 6.27479,-9.095427 6.34906,9.063788 z"
       id="path26320" />
    <path
       style="fill:#a5c9ca;fill-opacity:1;stroke:none;stroke-width:0.264583px;stroke-linecap:butt;stroke-linejoin:miter;stroke-opacity:1"
       d="m -233.37727,-118.02556 8.68218,-11.14717 7.52354,10.7503 -8.06472,11.722 z"
       id="path26322"
       sodipodi:nodetypes="ccccc" />
    <path
       style="fill:#a084cf;fill-opacity:1;stroke:none;stroke-width:0.264583px;stroke-linecap:butt;stroke-linejoin:miter;stroke-opacity:1"
       d="m -222.44588,-102.45593 8.13836,-11.7749 9.14396,12.97928 -8.79033,11.083585 z"
       id="path26324"
       sodipodi:nodetypes="ccccc" />
    <path
       id="path26326"
       style="fill:#0b1728;fill-opacity:1;stroke:none;stroke-width:0.25311px;stroke-linecap:butt;stroke-linejoin:miter;stroke-opacity:1"
       d="m -226.48364,-135.50887 -13.73318,17.53725 11.45618,16.55151 -12.13494,17.300455 26.82322,0.06427 13.79845,-17.448265 -11.51453,-16.48774 12.1656,-17.51748 z m 5.6317,4.49072 h 12.70691 l -6.33121,9.08279 z" />
    <path
       style="fill:#ffffff;fill-opacity:0.453271;stroke:none;stroke-width:0.25311px;stroke-linecap:butt;stroke-linejoin:miter;stroke-opacity:1"
       d="m -220.85213,-131.01823 h 12.70728 l -6.33127,9.08302 z"
       id="path26328" />
    <path
       style="fill:#fce2db;fill-opacity:1;stroke:none;stroke-width:0.264583px;stroke-linecap:butt;stroke-linejoin:miter;stroke-opacity:1"
       d="m -235.26243,-118.19092 9.69036,-12.30312 8.40052,12.07161 -8.96276,13.03073 z"
       id="path26330" />
    <path
       style="fill:#fce2db;fill-opacity:1;stroke:none;stroke-width:0.264583px;stroke-linecap:butt;stroke-linejoin:miter;stroke-opacity:1"
       d="m -223.42809,-101.06446 9.12057,-13.16637 9.14396,12.97928 -9.68184,12.230922 z"
       id="path26332" />
    <path
       style="fill:#ffffff;fill-opacity:1;stroke:none;stroke-width:0.25311px;stroke-linecap:butt;stroke-linejoin:miter;stroke-opacity:1"
       d="m -232.23892,-88.465532 6.27479,-9.095427 6.34906,9.063788 z"
       id="path26334" />
    <path
       style="fill:#a5c9ca;fill-opacity:1;stroke:none;stroke-width:0.264583px;stroke-linecap:butt;stroke-linejoin:miter;stroke-opacity:1"
       d="m -233.37727,-118.02556 8.68218,-11.14717 7.52354,10.7503 -8.06472,11.722 z"
       id="path26336"
       sodipodi:nodetypes="ccccc" />
    <path
       style="fill:#a084cf;fill-opacity:1;stroke:none;stroke-width:0.264583px;stroke-linecap:butt;stroke-linejoin:miter;stroke-opacity:1"
       d="m -222.44588,-102.45593 8.13836,-11.7749 9.14396,12.97928 -8.79033,11.083585 z"
       id="path26338"
       sodipodi:nodetypes="ccccc" />
    <path
       style="fill:#ffffff;fill-opacity:0.453271;stroke:none;stroke-width:0.25311px;stroke-linecap:butt;stroke-linejoin:miter;stroke-opacity:1"
       d="m -220.85213,-131.01823 h 12.70728 l -6.33127,9.08302 z"
       id="path26354" />
    <path
       style="fill:#fce2db;fill-opacity:1;stroke:none;stroke-width:0.264583px;stroke-linecap:butt;stroke-linejoin:miter;stroke-opacity:1"
       d="m -235.26243,-118.19092 9.69036,-12.30312 8.40052,12.07161 -8.96276,13.03073 z"
       id="path26356" />
    <path
       style="fill:#fce2db;fill-opacity:1;stroke:none;stroke-width:0.264583px;stroke-linecap:butt;stroke-linejoin:miter;stroke-opacity:1"
       d="m -223.42809,-101.06446 9.12057,-13.16637 9.14396,12.97928 -9.68184,12.230922 z"
       id="path26358" />
    <path
       style="fill:#ffffff;fill-opacity:1;stroke:none;stroke-width:0.25311px;stroke-linecap:butt;stroke-linejoin:miter;stroke-opacity:1"
       d="m -232.23892,-88.465532 6.27479,-9.095427 6.34906,9.063788 z"
       id="path26360" />
    <path
       style="fill:#a5c9ca;fill-opacity:1;stroke:none;stroke-width:0.264583px;stroke-linecap:butt;stroke-linejoin:miter;stroke-opacity:1"
       d="m -233.37727,-118.02556 8.68218,-11.14717 7.52354,10.7503 -8.06472,11.722 z"
       id="path26362"
       sodipodi:nodetypes="ccccc" />
    <path
       style="fill:#a084cf;fill-opacity:1;stroke:none;stroke-width:0.264583px;stroke-linecap:butt;stroke-linejoin:miter;stroke-opacity:1"
       d="m -222.44588,-102.45593 8.13836,-11.7749 9.14396,12.97928 -8.79033,11.083585 z"
       id="path26364"
       sodipodi:nodetypes="ccccc" />
    <path
       id="path26366"
       style="fill:#2f2a56;fill-opacity:1;stroke:none;stroke-width:0.25311px;stroke-linecap:butt;stroke-linejoin:miter;stroke-opacity:1"
       d="m -226.48364,-135.50887 -13.73318,17.53725 11.45618,16.55151 -12.13494,17.300455 26.82322,0.06427 13.79845,-17.448265 -11.51453,-16.48774 12.1656,-17.51748 z m 5.6317,4.49072 h 12.70691 l -6.33121,9.08279 z"
       sodipodi:nodetypes="ccccccccccccc" />
    <path
       style="fill:#ffffff;fill-opacity:1;stroke:none;stroke-width:0.25311px;stroke-linecap:butt;stroke-linejoin:miter;stroke-opacity:1"
       d="m -220.85213,-131.01823 h 12.70728 l -6.33127,9.08302 z"
       id="path26368" />
    <path
       id="path36206"
       style="fill:#837bbe;fill-opacity:1;stroke:none;stroke-width:0.264583px;stroke-linecap:butt;stroke-linejoin:miter;stroke-opacity:1"
       d="m -220.85217,-131.01837 0.9369,1.34116 10.84195,0.0234 0.92838,-1.36454 z"
       sodipodi:nodetypes="ccccc" />
    <path
       style="fill:#fce2db;fill-opacity:1;stroke:none;stroke-width:0.264583px;stroke-linecap:butt;stroke-linejoin:miter;stroke-opacity:1"
       d="m -235.26243,-118.19092 9.69036,-12.30312 8.40052,12.07161 -8.96276,13.03073 z"
       id="path26370" />
    <path
       style="fill:#fce2db;fill-opacity:1;stroke:none;stroke-width:0.264583px;stroke-linecap:butt;stroke-linejoin:miter;stroke-opacity:1"
       d="m -223.42809,-101.06446 9.12057,-13.16637 9.14396,12.97928 -9.68184,12.230922 z"
       id="path26372" />
    <path
       style="fill:#ffffff;fill-opacity:1;stroke:none;stroke-width:0.25311px;stroke-linecap:butt;stroke-linejoin:miter;stroke-opacity:1"
       d="m -232.23892,-88.465532 6.27479,-9.095427 6.34906,9.063788 z"
       id="path26374" />
    <path
       style="fill:#a5c9ca;fill-opacity:1;stroke:none;stroke-width:0.264583px;stroke-linecap:butt;stroke-linejoin:miter;stroke-opacity:1"
       d="m -233.37727,-118.02556 8.68218,-11.14717 7.52354,10.7503 -8.06472,11.722 z"
       id="path26376"
       sodipodi:nodetypes="ccccc" />
    <path
       style="fill:#a084cf;fill-opacity:1;stroke:none;stroke-width:0.264583px;stroke-linecap:butt;stroke-linejoin:miter;stroke-opacity:1"
       d="m -222.44588,-102.45593 8.13836,-11.7749 9.14396,12.97928 -8.79033,11.083585 z"
       id="path26378"
       sodipodi:nodetypes="ccccc" />
    <path
       style="fill:#837bbe;fill-opacity:1;stroke:none;stroke-width:0.264583px;stroke-linecap:butt;stroke-linejoin:miter;stroke-opacity:1"
       d="m -235.26243,-118.19092 9.69036,-12.30312 8.40052,12.07161 -8.96276,13.03073 z"
       id="path26396" />
    <path
       style="fill:#837bbe;fill-opacity:1;stroke:none;stroke-width:0.264583px;stroke-linecap:butt;stroke-linejoin:miter;stroke-opacity:1"
       d="m -223.42809,-101.06446 9.12057,-13.16637 9.14396,12.97928 -9.68184,12.230922 z"
       id="path26398" />
    <path
       id="path26400"
       style="fill:#837bbe;fill-opacity:1;stroke:none;stroke-width:0.25311px;stroke-linecap:butt;stroke-linejoin:miter;stroke-opacity:1"
       d="m -220.477,-89.727867 -10.94609,0.0801 -0.81598,1.182357 12.62403,-0.03152 z" />
    <path
       style="fill:#ffffff;fill-opacity:1;stroke:none;stroke-width:0.264583px;stroke-linecap:butt;stroke-linejoin:miter;stroke-opacity:1"
       d="m -233.37727,-118.02556 8.68218,-11.14717 7.52354,10.7503 -8.06472,11.722 z"
       id="path26402"
       sodipodi:nodetypes="ccccc" />
    <path
       style="fill:#ffffff;fill-opacity:1;stroke:none;stroke-width:0.264583px;stroke-linecap:butt;stroke-linejoin:miter;stroke-opacity:1"
       d="m -222.44588,-102.45593 8.13836,-11.7749 9.14396,12.97928 -8.79033,11.083585 z"
       id="path26404"
       sodipodi:nodetypes="ccccc" />
  </g>
</svg>
