<?xml version="1.0" encoding="UTF-8"?>
<svg data-name="Layer 1" version="1.1" viewBox="0 0 779.29 604.76" xmlns="http://www.w3.org/2000/svg">
<path d="m510 0h-501a9.0136 9.0136 0 0 0-9 9v296a9.0136 9.0136 0 0 0 9 9h501a9.0136 9.0136 0 0 0 9-9v-296a9.0136 9.0136 0 0 0-9-9zm7 305a7.0078 7.0078 0 0 1-7 7h-501a7.0078 7.0078 0 0 1-7-7v-296a7.0078 7.0078 0 0 1 7-7h501a7.0078 7.0078 0 0 1 7 7z" fill="#3f3d56"/>
<rect x="1" y="34" width="517" height="2" fill="#3f3d56"/>
<circle cx="18" cy="17.5" r="5" fill="#ccc"/>
<circle cx="33" cy="17.5" r="5" fill="#ccc"/>
<circle cx="48" cy="17.5" r="5" fill="#ccc"/>
<path d="m380.5 433.5h-242a8.5096 8.5096 0 0 1-8.5-8.5v-271a8.5096 8.5096 0 0 1 8.5-8.5h242a8.5095 8.5095 0 0 1 8.5 8.5v271a8.5095 8.5095 0 0 1-8.5 8.5z" fill="#6c63ff"/>
<path d="m330.5 284.5h-142a12.5 12.5 0 0 1 0-25h142a12.5 12.5 0 0 1 0 25z" fill="#fff"/>
<path d="m330.5 331h-142a12.5 12.5 0 0 1 0-25h142a12.5 12.5 0 0 1 0 25z" fill="#fff"/>
<path d="m330.5 378h-142a12.5 12.5 0 1 1 0-25h142a12.5 12.5 0 0 1 0 25z" fill="#fff"/>
<path d="m287 223h-55a12.5 12.5 0 0 1 0-25h55a12.5 12.5 0 0 1 0 25z" fill="#fff"/>
<rect x="43" y="71" width="433" height="21" rx="10.5" fill="#ccc"/>
<path d="m681.4 473.78a9.6908 9.6908 0 0 0 3.4654-14.45l22.582-124.98-21.073-0.27771-15.682 123.58a9.7434 9.7434 0 0 0 10.707 16.119z" fill="#a0616a"/>
<polygon transform="translate(-58.213 -2.2389)" points="682.22 593.1 689.22 510.1 700.22 475.1 674.22 470.1 666.22 508.1 667.22 593.1" fill="#a0616a"/>
<polygon transform="translate(-58.213 -2.2389)" points="732.22 593.1 739.22 510.1 750.22 475.1 724.22 470.1 716.22 508.1 717.22 593.1" fill="#a0616a"/>
<path d="m604.1 588.49 23.62 1.0721-0.67504 14.872-38.491-1.7472a14.887 14.887 0 0 1 15.547-14.197z" fill="#2f2e41"/>
<path d="m654.1 588.49 23.62 1.0721-0.67504 14.872-38.491-1.7472a14.887 14.887 0 0 1 15.547-14.197z" fill="#2f2e41"/>
<circle cx="652.5" cy="256.94" r="24.561" fill="#a0616a"/>
<path d="m706.78 317.69c-8.1268-12.752-35.166-44.527-75.278-18.332 0 0 9.5 79.5-13.5 122.5 0 0 53 16 82 1 0 0-10-67 0-80a53.904 53.904 0 0 0 8.0129-13.726 12.891 12.891 0 0 0-1.235-11.442z" fill="#ccc"/>
<path d="m697 316.86 9.8136 4.089a3.7184 3.7184 0 0 1 2.285 3.2776l0.9014 21.633-22-2z" fill="#ccc"/>
<path d="m622 419.86s-22 41-18 79l31 5 22-53-5 54 32 1s21-78 14-85z" fill="#2f2e41"/>
<path d="m616.4 463.78a9.6908 9.6908 0 0 0 3.4654-14.45l22.582-124.98-21.073-0.27771-15.682 123.58a9.7434 9.7434 0 0 0 10.707 16.119z" fill="#a0616a"/>
<path d="m641 299.86-9-1s-8-2-11 9-3 33-3 33l28-1z" fill="#ccc"/>
<path d="m656.44 268.77c0.882-3.0618 0.62715-7.205-2.3412-8.3631-1.5466-0.60341-3.2723-0.12748-4.9239 0.0417a13.141 13.141 0 0 1-9.0806-2.4995c-3.0705-2.2826-4.9671-5.7716-6.768-9.1472l-2.724-5.1056a22.18 22.18 0 0 1-1.5455-3.327c-1.5157-4.5073 0.13007-9.7256 3.4991-13.082a18.976 18.976 0 0 1 12.963-5.0823 34.984 34.984 0 0 1 13.851 2.9674 61.261 61.261 0 0 1 20.653 13.875c3.832 3.9201 7.3203 9.0269 6.5197 14.45-0.62323 4.2214-3.7003 7.6017-6.6349 10.7l-10.645 11.237c-1.8852 1.99-3.8996 4.0612-6.5318 4.8263s-6.0232-0.35883-6.741-3.0043c-4e-5 4e-5 -0.43236-5.4244 0.44967-8.4862z" fill="#2f2e41"/>
<path d="m779.29 603.76a1.0031 1.0031 0 0 1-1 1h-288a1 1 0 0 1 0-2h288a1.0031 1.0031 0 0 1 1 1z" fill="#3f3d56"/>
<path d="m115.51 152.26a198.15 198.15 0 0 0 17.717 279.66 198.15 198.15 0 0 0 279.66-17.716 198.15 198.15 0 0 0-17.716-279.66 198.15 198.15 0 0 0-279.66 17.72zm10.182 46.264 240.02 211.42a162.54 162.54 0 0 1-208.95-4.7385 162.54 162.54 0 0 1-31.067-206.68zm39.824-43.991a162.54 162.54 0 0 1 206.12 6.7251 162.54 162.54 0 0 1 32.919 203.83z" fill="#f55" stroke-width="1.3828"/>
</svg>
