<?xml version="1.0" encoding="UTF-8"?>
<svg data-name="Layer 1" version="1.1" viewBox="0 0 680.57 473.29" xmlns="http://www.w3.org/2000/svg">
<path d="m556.28 104.47a16.214 16.214 0 0 0-15.722-16.725l-44.768-1.3368-37.956-31.693a9.0109 9.0109 0 1 0-10.371 9.7343l39.786 45.327 49.6 10.066a16.215 16.215 0 0 0 19.431-15.373z" fill="#9e616a"/>
<path d="m495.47 115.68 5.8615-30.344 0.19152-0.1484a7.8507 7.8507 0 0 1 8.8268-0.56032l0.3402 0.19963 39.527 1.0646 4.6272 2.7228 2.6702-0.6518c8.0729-1.9703 16.23-3.3061 21.205 0.22686 2.8118 1.9953 4.4051 5.3174 4.8737 10.151a23.258 23.258 0 0 1-26.029 25.324l-1.9877-0.26961-6.5105-2.6297-10.069 1.1955-6.0249-2.4755z" fill="#3f3d56"/>
<path d="m342.41 451.16a59.481 59.481 0 0 1-2.576 18.611c-0.0645 0.21894-0.14174 0.43787-0.219 0.65688h-37.918a34.03 34.03 0 0 1 2.5632-7.7279c3.1555-6.6975 8.3074-12.429 13.395-18.122 7.0066-7.8438 13.846-15.623 14.928-25.824a58.582 58.582 0 0 1 6.5945 13.614 16.001 16.001 0 0 0-5.2936 3.2457c-0.425 0.39927-0.87589 0.97888-0.65688 1.5327 0.206 0.46366 0.77276 0.61829 1.2751 0.72127 1.2107 0.23183 2.4214 0.46365 3.6321 0.68267 0.9531 0.19315 1.9191 0.37348 2.8851 0.55382a63.244 63.244 0 0 1 1.391 12.055z" fill="#e6e6e6"/>
<path d="m374.26 446.98c-6.0793 3.6965-9.9433 9.4152-13.099 15.816a16.178 16.178 0 0 0-7.3544 3.864c-0.438 0.39935-0.88872 0.97888-0.65689 1.5327 0.19323 0.46373 0.77284 0.61829 1.2751 0.72127 1.1978 0.2319 2.4214 0.46373 3.6192 0.68267-0.11587 0.2705-0.23183 0.55382-0.3477 0.82432h-40.185a56.823 56.823 0 0 1 6.0406-6.9036c0.47655-0.47663 0.966-0.92739 1.4683-1.391a60.103 60.103 0 0 1 17.388-10.974 61.169 61.169 0 0 1 31.852-4.173z" fill="#e6e6e6"/>
<path d="m324.21 470.42h-35.78a58.122 58.122 0 0 1 0.0516-8.6037 61.525 61.525 0 0 1 25.566-44.732c-1.8547 6.6074-0.9016 13.176 1.0304 19.771-0.27042 0.0902-0.54093 0.16745-0.78565 0.27043a16.003 16.003 0 0 0-5.2936 3.2457c-0.425 0.39927-0.87582 0.97888-0.65688 1.5327 0.19315 0.46366 0.77276 0.61821 1.2751 0.72127 1.2107 0.23183 2.4214 0.46365 3.6192 0.68267 0.966 0.19315 1.932 0.37348 2.898 0.56671 0.45076 0.0773 0.9016 0.16737 1.3524 0.25754 0.0644 0.15455 0.10306 0.29629 0.16745 0.438 2.2669 6.2467 4.7398 12.545 5.899 18.946a44.224 44.224 0 0 1 0.5925 4.8556c0.0386 0.68262 0.0643 1.3652 0.0643 2.0479z" fill="#e6e6e6"/>
<path d="m168.89 414.75a171.86 171.86 0 0 1-7.4426 53.773c-0.18625 0.63255-0.40952 1.2651-0.63279 1.8979h-109.56a98.322 98.322 0 0 1 7.4056-22.328c9.117-19.351 24.002-35.911 38.701-52.359 20.244-22.663 40.004-45.139 43.13-74.612a169.26 169.26 0 0 1 19.053 39.334 46.231 46.231 0 0 0-15.294 9.3775c-1.2281 1.1536-2.5307 2.8282-1.8979 4.4284 0.5953 1.3396 2.2327 1.7864 3.684 2.0839 3.498 0.66981 6.996 1.3396 10.494 1.9724 2.7537 0.558 5.5447 1.0791 8.3357 1.6001a182.73 182.73 0 0 1 4.019 34.831z" fill="#e6e6e6"/>
<path d="m260.92 402.7c-17.565 10.68-28.729 27.203-37.846 45.697a46.743 46.743 0 0 0-21.249 11.164c-1.2653 1.1538-2.5677 2.8282-1.8979 4.4284 0.55829 1.3398 2.2329 1.7864 3.684 2.0839 3.4608 0.67 6.9961 1.3398 10.457 1.9724-0.33479 0.78155-0.6698 1.6001-1.0046 2.3817h-116.1a164.18 164.18 0 0 1 17.453-19.946c1.3769-1.3771 2.791-2.6794 4.2423-4.0191a173.65 173.65 0 0 1 50.238-31.706 176.73 176.73 0 0 1 92.028-12.057z" fill="#e6e6e6"/>
<path d="m116.31 470.42h-103.38a167.93 167.93 0 0 1 0.149-24.858c4.1306-51.094 31.929-99.768 73.868-129.24-5.3587 19.09-2.605 38.069 2.977 57.122-0.78133 0.26052-1.5629 0.48379-2.2699 0.78133a46.236 46.236 0 0 0-15.294 9.3778c-1.2281 1.1536-2.5305 2.8282-1.8979 4.4284 0.55806 1.3396 2.2327 1.7862 3.684 2.0839 3.498 0.66981 6.9961 1.3396 10.457 1.9724 2.791 0.55805 5.582 1.0791 8.3729 1.6374 1.3024 0.22327 2.605 0.48356 3.9073 0.74407 0.186 0.44654 0.29777 0.85606 0.48379 1.2654 6.5495 18.048 13.694 36.245 17.044 54.74a127.78 127.78 0 0 1 1.7119 14.029c0.11156 1.9724 0.18606 3.9446 0.18606 5.917z" fill="#e6e6e6"/>
<path d="m565.59 414.75a171.86 171.86 0 0 1-7.4426 53.773c-0.18625 0.63255-0.40952 1.2651-0.63279 1.8979h-109.56a98.322 98.322 0 0 1 7.4056-22.328c9.117-19.351 24.002-35.911 38.701-52.359 20.244-22.663 40.004-45.139 43.13-74.612a169.26 169.26 0 0 1 19.053 39.334 46.231 46.231 0 0 0-15.294 9.3775c-1.2281 1.1536-2.5307 2.8282-1.8979 4.4284 0.5953 1.3396 2.2327 1.7864 3.684 2.0839 3.498 0.66981 6.996 1.3396 10.494 1.9724 2.7537 0.558 5.5447 1.0791 8.3357 1.6001a182.73 182.73 0 0 1 4.019 34.831z" fill="#e6e6e6"/>
<path d="m657.62 402.7c-17.565 10.68-28.729 27.203-37.846 45.697a46.743 46.743 0 0 0-21.249 11.164c-1.2653 1.1538-2.5677 2.8282-1.8979 4.4284 0.55829 1.3398 2.2329 1.7864 3.684 2.0839 3.4608 0.67 6.9961 1.3398 10.457 1.9724-0.33479 0.78155-0.6698 1.6001-1.0046 2.3817h-116.1a164.18 164.18 0 0 1 17.453-19.946c1.3769-1.3771 2.791-2.6794 4.2423-4.0191a173.65 173.65 0 0 1 50.238-31.706 176.73 176.73 0 0 1 92.028-12.057z" fill="#e6e6e6"/>
<path d="m513.01 470.42h-103.38a167.93 167.93 0 0 1 0.149-24.858c4.1306-51.094 31.929-99.768 73.868-129.24-5.3587 19.09-2.605 38.069 2.977 57.122-0.78133 0.26052-1.5629 0.48379-2.2699 0.78133a46.236 46.236 0 0 0-15.294 9.3778c-1.2281 1.1536-2.5305 2.8282-1.8979 4.4284 0.55806 1.3396 2.2327 1.7862 3.684 2.0839 3.498 0.66981 6.9961 1.3396 10.457 1.9724 2.791 0.55805 5.582 1.0791 8.3729 1.6374 1.3024 0.22327 2.605 0.48356 3.9073 0.74407 0.186 0.44654 0.29777 0.85606 0.48379 1.2654 6.5495 18.048 13.694 36.245 17.044 54.74a127.78 127.78 0 0 1 1.7119 14.029c0.11156 1.9724 0.18606 3.9446 0.18606 5.917z" fill="#e6e6e6"/>
<path d="m332.51 128.6a82.393 82.393 0 1 1-13.292-44.912 36.119 36.119 0 0 0-3.4776 3.542c-0.28332 0.322-0.56672 0.6697-0.83715 1.0046-0.39927 0.48943-0.77283 0.97887-1.1334 1.4812-0.42505 0.5796-0.82432 1.172-1.2107 1.7774a35.624 35.624 0 0 0-4.3276 9.5955 39.016 39.016 0 0 1 8.7196-7.7408 1.178 1.178 0 0 1 0.219-0.116c0.322-0.206 0.644-0.41216 0.9788-0.6182a40.574 40.574 0 0 1 4.4436-2.3441c0.12885-0.0515 0.25761-0.11595 0.38638-0.16744a81.914 81.914 0 0 1 9.5311 38.498z" fill="#3f3d56"/>
<path d="m293.13 470.48c-1.713-1.4168-3.3874-2.8722-5.0231-4.392a124.77 124.77 0 0 1-30.087-43.83 129.01 129.01 0 0 1-9.5826-42.091c-0.19323-3.426-0.23191-6.8392-0.14174-10.252a119.12 119.12 0 0 1 3.6708-26.378c2.5888-10.02 6.4785-19.642 10.549-29.147 2.0092-4.7011 4.0958-9.4152 6.105-14.168 6.1308-14.451 11.643-29.25 12.493-45.028a89.127 89.127 0 0 0-16.834-56.89c-1.4554-2.0092 1.8933-3.9412 3.3358-1.9449q2.2218 3.0332 4.1731 6.2597a92.442 92.442 0 0 1 12.764 57.663c-1.5585 13.691-6.1952 26.558-11.476 39.18-2.7177 6.5429-5.6157 13.009-8.3462 19.513-0.82433 1.9578-1.6357 3.9155-2.4214 5.899a154.12 154.12 0 0 0-7.4059 22.939 115.69 115.69 0 0 0-2.7949 26.378c0.0258 2.3441 0.10306 4.6754 0.25761 7.0066a125.64 125.64 0 0 0 11.386 44.59 119.87 119.87 0 0 0 32.122 41.962c1.9191 1.5841-0.83712 4.3018-2.7434 2.7305z" fill="#3f3d56"/>
<path d="m264.72 434.73q-3.1491-0.86942-6.2338-1.9191a124.58 124.58 0 0 1-44.976-27.37 129.03 129.03 0 0 1-30.087-42.98 119.05 119.05 0 0 1-7.6635-25.335 146.06 146.06 0 0 1-1.8418-14.941c-0.45076-6.0921-0.60532-12.223-0.68259-18.328-0.16745-13.833 0.0515-27.975-2.0479-41.679a91.965 91.965 0 0 0-6.4012-23.094 89.18 89.18 0 0 0-36.811-41.422c-2.1509-1.2493-0.206-4.5852 1.9449-3.3358 1.9964 1.1591 3.9541 2.3827 5.8603 3.6965a93.086 93.086 0 0 1 34.132 43.469 97.42 97.42 0 0 1 5.0747 19.822c2.3312 15.082 1.8934 30.641 2.1638 45.852 0.0902 5.1776 0.2705 10.368 0.68267 15.546a126.51 126.51 0 0 0 2.2797 16.589 116.53 116.53 0 0 0 8.256 24.819 126.62 126.62 0 0 0 31.491 41.872 118.87 118.87 0 0 0 45.878 25.013c2.3956 0.66979 1.3782 4.405-1.0175 3.7223z" fill="#3f3d56"/>
<path d="m115.84 214.38a82.431 82.431 0 1 1-13.704-155.4c-0.37349 0.51515-0.73408 1.0561-1.0819 1.5971a35.624 35.624 0 0 0-4.3276 9.5955 39.016 39.016 0 0 1 8.7196-7.7408 1.178 1.178 0 0 1 0.219-0.116c0.322-0.206 0.644-0.41216 0.9788-0.6182 0.541-0.33489 1.0819-0.644 1.6358-0.94028a82.45 82.45 0 0 1 31.311 18.856 35.041 35.041 0 0 0-3.542 2.7821 36.12 36.12 0 0 0-3.4776 3.542c-0.28332 0.322-0.56671 0.66969-0.83714 1.0046-0.39927 0.48944-0.77284 0.97888-1.1334 1.4812-0.0387 0.0644-0.0902 0.11588-0.12885 0.18034-0.37348 0.51515-0.73408 1.0561-1.0819 1.5971a35.624 35.624 0 0 0-4.3276 9.5955 39.016 39.016 0 0 1 8.7196-7.7408 1.1784 1.1784 0 0 1 0.219-0.11595c0.322-0.206 0.644-0.41216 0.9788-0.61821 0.541-0.33488 1.0819-0.644 1.6358-0.94028 0.9145-0.50225 1.8547-0.966 2.8078-1.4038 0.12884-0.0515 0.25761-0.116 0.38638-0.16745a39.896 39.896 0 0 1 6.2982-2.1509 82.486 82.486 0 0 1-30.268 127.72z" fill="#3f3d56"/>
<path d="m341.55 121.07a82.393 82.393 0 1 0 25.204-39.478 36.12 36.12 0 0 1 2.3613 4.3662c0.18312 0.38784 0.3592 0.8004 0.52636 1.1971 0.24819 0.58083 0.47168 1.1546 0.67914 1.7371 0.248 0.67461 0.4677 1.3544 0.67141 2.0431a35.624 35.624 0 0 1 1.5025 10.418 39.016 39.016 0 0 0-6.2362-9.8519 1.178 1.178 0 0 0-0.17836-0.17205c-0.25239-0.28712-0.50474-0.57432-0.76944-0.865a40.575 40.575 0 0 0-3.6211-3.4825c-0.10956-0.0851-0.21545-0.18273-0.32493-0.26786a81.913 81.913 0 0 0-19.815 34.355z" fill="#3f3d56"/>
<path d="m401.94 216.79q-2.8014 2.1639-5.4224 4.5595a89.137 89.137 0 0 0-27.189 48.557c-0.25761 1.3395-0.47655 2.6918-0.66978 4.0442-2.9881 20.84 1.5198 41.988 3.7223 62.699 0.0773 0.70837 0.15455 1.4038 0.21894 2.1122a147.03 147.03 0 0 1 0.39927 29.25 121.7 121.7 0 0 1-5.4996 25.876 130.6 130.6 0 0 1-26.223 45.414 122.05 122.05 0 0 1-42.4 31.053c-2.254 0.9788-4.2245-2.357-1.9449-3.3359 2.0221-0.88871 4.0314-1.816 6.002-2.8078a121.3 121.3 0 0 0 40.314-33.256 124.47 124.47 0 0 0 23.016-46.715 113.64 113.64 0 0 0 3.4389-26.339 168.26 168.26 0 0 0-0.85-18.019c-0.48944-5.2292-1.1592-10.458-1.829-15.675-2.1251-16.357-4.2632-32.972-2.3055-49.291a87.409 87.409 0 0 1 3.1427-15.095 92.58 92.58 0 0 1 31.337-45.762c1.9448-1.5198 4.7011 1.1979 2.7434 2.7306z" fill="#3f3d56"/>
<path d="m266.56 264.09c-4.7177-11.381-13.56-20.966-21.347-30.805-9.4678-11.988-28.954-6.4574-30.228 8.7557 8.738 2.8722 9.8724 15.493-0.122 17.221 2.5516 27.537 20.124 52.931 44.551 65.693l12.081-22.573c1.6329-12.852-0.79604-28.317-4.9346-38.292z" fill="#3f3d56"/>
<path d="m271.49 302.44q0.20117-0.39987 0.40422-0.7987l-0.3984 0.74445z" fill="#2f2e41"/>
<path d="m358.01 360.69c-4.7177-11.381-13.56-20.966-21.347-30.805-9.4678-11.988-28.954-6.4574-30.228 8.7557 8.738 2.8722 9.8724 15.493-0.122 17.221 2.5516 27.537 20.124 52.931 44.551 65.693l12.081-22.573c1.6329-12.852-0.79604-28.317-4.9346-38.292z" fill="#3f3d56"/>
<path d="m388.58 330.83c9.6253 7.6898 21.996 11.816 33.565 16.674 14.078 5.9287 28.474-8.3211 22.246-22.259-9.039 1.7025-16.125-8.803-8.2058-15.14-15.527-22.885-43.174-36.642-70.727-36.028l0.31615 25.601c4.7735 12.043 14.366 24.415 22.805 31.153z" fill="#3f3d56"/>
<path d="m154.28 332.12c-9.6253 7.6898-21.996 11.816-33.565 16.674-14.078 5.9287-28.474-8.3211-22.246-22.259 9.039 1.7025 16.125-8.803 8.2058-15.14 15.527-22.885 43.174-36.642 70.727-36.028l-0.31616 25.601c-4.7735 12.043-14.366 24.415-22.805 31.153z" fill="#3f3d56"/>
<path d="m362.94 399.04q0.20116-0.39987 0.40422-0.7987l-0.3984 0.74445z" fill="#2f2e41"/>
<polygon transform="translate(-95.342 -8.1217e-5)" points="673.59 159 615.35 165.17 612.77 174.19 614.06 211.54 668.16 194.8" fill="#9e616a"/>
<polygon transform="translate(-95.342 -8.1217e-5)" points="576.18 446.17 562.79 443.57 566.46 390.68 586.23 394.52" fill="#9e616a"/>
<path d="m486.66 440.45-4.4873-1.1482-14.182-3.6503-2.2488-0.58163-1.7654 9.0776-22.83 9.9803a5.7698 5.7698 0 0 0 1.2026 10.954l25.21 4.9027 6.0821-8.1332-0.0389 9.3084 9.4949 1.8465z" fill="#2f2e41"/>
<polygon transform="translate(-95.342 -8.1217e-5)" points="748.45 437.12 735.32 440.8 714.85 391.89 734.24 386.45" fill="#9e616a"/>
<path d="m655.74 429.39-4.5251 0.98894-14.311 3.1066-2.2705 0.49 2.4987 8.9037-15.917 19.169a5.7698 5.7698 0 0 0 5.9931 9.2474l24.727-6.9394 1.7825-9.9982 4.1449 8.3347 9.313-2.6136z" fill="#2f2e41"/>
<path d="m516.14 203.81 61.103-18.811s-1.8557 5.9314 5.8261 18.693c8.0244 13.331 12.574 28.889 12.748 41.141 0.37724 26.504 3.9261 52.866 11.866 78.155l0.68927 2.1955s18.506 15.097 26.262 47.352l15.953 39.167-19.817 5.9126-51.9-78.202-4.9318-3.9919a32.242 32.242 0 0 1-11.938-23.951l-15.59-25.824-11.587 22.734-18.737 26.652-11.435 39.254c-3.4481 18.286-6.3064 35.405-18.136 49.769l-21.399-2.8599 14.959-89.875 29.624-86.295z" fill="#2f2e41"/>
<path d="m512.4 185.01c-0.81682 5.1481 0.50534 9.9108-0.15674 15.992-0.10968 1.0073-2.6807 3.3651-2.7597 4.366-0.18829 2.3859 1.7015 3.3716 1.7597 5.634 0.0455 1.766-1.7986 4.8449-1.5476 6.4689 2.6451 17.116 18.047 24.717 74.548-11.469 0 0 5-3 1.5499-9.148-0.92-1.6394 3.1002-3.5476 3.4501-5.852 0.26586-1.751-1.9281-4.0279-1.6442-6 0.33508-2.3277 0.67931-4.7979 1.0246-7.3839 4.5056-33.744 9.1917-87.188-3.9017-100.57l-7.393-13.62-27.701 4.7142-0.0971 11.685-19.696 20.541s-19.085 19.66-12.592 38.638c4.7096 18.243 2.9596 26.424-4.8433 46.008z" fill="#3f3d56"/>
<path d="m568.95 106.38a16.214 16.214 0 0 0-20.135 11.023l-12.526 43.001-40.202 28.79a9.0109 9.0109 0 1 0 6.8209 12.481l53.86-27.141 22.189-45.488a16.215 16.215 0 0 0-10.006-22.667z" fill="#9e616a"/>
<path d="m564.55 168.06-27.903-13.287-0.0956-0.22263a7.8507 7.8507 0 0 1 1.6722-8.6851l0.27861-0.27923 10.948-37.995 3.7966-3.796 0.039-2.7483c0.11823-8.309 0.87165-16.54 5.54-20.47 2.637-2.2213 6.2525-2.93 11.049-2.171a23.258 23.258 0 0 1 17.983 31.55l-0.75971 1.8565-4.179 5.6425-1.3691 10.047-3.908 5.211z" fill="#3f3d56"/>
<path d="m527.09 67.6 5.9204-0.51831a33.454 33.454 0 0 1-1.2578-7.1618 21.666 21.666 0 0 0 5.5106 6.786l33.948-2.9961 20.655-41.683c-4.9173-16.152-17.651-25.659-33.719-20.717-0.96852 0.29792-1.9576 0.65325-2.9441 1.0589a35.554 35.554 0 0 0-30.687 38.676c-7.9391 14.717-1.7805 20.039 2.5739 26.555z" fill="#2f2e41"/>
<circle cx="550.46" cy="37.179" r="23.33" fill="#9e616a"/>
<path d="m519.21 30.734c2.4996 1.7729 9.2806 1.935 17.095 1.345-0.0583-0.148-0.105-0.29973-0.15165-0.45143a33.455 33.455 0 0 1-1.2579-7.1618 21.666 21.666 0 0 0 5.5106 6.786c0.17051 0.13917 0.341 0.27828 0.52325 0.41383 6.6465-0.69061 13.569-1.7725 18.959-2.728 0.38488 13.957-10.058 28.716-6.1709 36.078l42.625-4.1453a32.894 32.894 0 0 1-2.2091-9.9218 21.81 21.81 0 0 0 9.203 9.2393l3.6226-0.348-0.52466-5.3181c2.2978-23.838-16.62-41.699-40.156-46.709a25.554 25.554 0 0 0-18.667-5.6256l-5.3217 0.513a25.675 25.675 0 0 0-23.079 28.034z" fill="#2f2e41"/>
<path d="m555.27 3.5441a23.174 23.174 0 0 1 19.129 22.676 1.5009 1.5009 0 0 0 3 0 26.163 26.163 0 0 0-21.331-25.568c-1.8877-0.34-2.6976 2.5506-0.79752 2.8928z" fill="#fd6584"/>
<path d="m679.65 472.98-664.49 0.30733a0.92241 1.1907 0 0 1 0-2.3814l664.49-0.30733a0.9224 1.1907 0 0 1 0 2.3814z" fill="#cacaca" stroke-width=".88016"/>
<g transform="matrix(.23574 0 0 .23574 21.836 88.476)">
<polygon points="440.98 78.038 493.95 153.15 512 178.75 506.76 184.52 284.98 428.74 258.01 458.44 257.42 459.09 257.4 459.07 256.18 457.75 254.83 456.28 225.98 424.88 5.103 184.52 0 178.98 17.546 153.15 70.467 75.288 85.671 52.911 423.26 52.911" fill="#85c9ff"/>
<polygon points="257.4 459.07 257.4 52.911 423.26 52.911 440.98 78.038 493.95 153.15 512 178.75 506.76 184.52 284.98 428.74 258.01 458.44 257.42 459.09" fill="#00a6ff"/>
<path d="m493.95 153.15h-86.382l33.409-75.11-17.714-25.127h-5.427l-42.329 95.156-97.08-95.156h-42.046l-100.02 93.347-41.523-93.347h-9.171l-15.204 22.377 34.622 77.86h-87.543l-17.546 25.828 5.103 5.542h113.96l106.92 240.36 28.85 31.401 1.349 1.474 1.223 1.318 0.021 0.021 0.586-0.648 26.968-29.697 108.64-244.23h113.14l5.239-5.772zm-236.55-76.919 0.01-0.01 77.85 76.93h-160.86zm0 339.71-104.01-231.42h205.9z" fill="#d7e9ff"/>
<polygon points="278.43 52.911 375.51 148.07 417.84 52.911 423.26 52.911 440.98 78.038 407.57 153.15 493.95 153.15 512 178.75 506.76 184.52 393.62 184.52 284.98 428.74 258.01 458.44 257.42 459.09 257.4 459.07 257.4 415.94 359.29 184.52 257.4 184.52 257.4 153.15 335.26 153.15 257.41 76.219 257.4 76.229 257.4 52.911" fill="#bdf"/>
</g>
<g transform="matrix(.23574 0 0 .23574 189.7 79.278)">
<polygon points="493.95 153.15 512 178.75 506.76 184.52 284.98 428.74 258.01 458.44 257.42 459.09 257.4 459.07 256.18 457.75 254.83 456.28 225.98 424.88 5.103 184.52 0 178.98 17.546 153.15 70.467 75.288 85.671 52.911 423.26 52.911 440.98 78.038" fill="#85c9ff"/>
<polygon points="257.4 52.911 423.26 52.911 440.98 78.038 493.95 153.15 512 178.75 506.76 184.52 284.98 428.74 258.01 458.44 257.42 459.09 257.4 459.07" fill="#00a6ff"/>
<path d="m493.95 153.15h-86.382l33.409-75.11-17.714-25.127h-5.427l-42.329 95.156-97.08-95.156h-42.046l-100.02 93.347-41.523-93.347h-9.171l-15.204 22.377 34.622 77.86h-87.543l-17.546 25.828 5.103 5.542h113.96l106.92 240.36 28.85 31.401 1.349 1.474 1.223 1.318 0.021 0.021 0.586-0.648 26.968-29.697 108.64-244.23h113.14l5.239-5.772zm-236.55-76.919 0.01-0.01 77.85 76.93h-160.86zm0 339.71-104.01-231.42h205.9z" fill="#d7e9ff"/>
<polygon points="375.51 148.07 417.84 52.911 423.26 52.911 440.98 78.038 407.57 153.15 493.95 153.15 512 178.75 506.76 184.52 393.62 184.52 284.98 428.74 258.01 458.44 257.42 459.09 257.4 459.07 257.4 415.94 359.29 184.52 257.4 184.52 257.4 153.15 335.26 153.15 257.41 76.219 257.4 76.229 257.4 52.911 278.43 52.911" fill="#bdf"/>
</g>
<g transform="matrix(.23574 0 0 .23574 366.75 90.776)">
<polygon points="512 178.75 506.76 184.52 284.98 428.74 258.01 458.44 257.42 459.09 257.4 459.07 256.18 457.75 254.83 456.28 225.98 424.88 5.103 184.52 0 178.98 17.546 153.15 70.467 75.288 85.671 52.911 423.26 52.911 440.98 78.038 493.95 153.15" fill="#85c9ff"/>
<polygon points="423.26 52.911 440.98 78.038 493.95 153.15 512 178.75 506.76 184.52 284.98 428.74 258.01 458.44 257.42 459.09 257.4 459.07 257.4 52.911" fill="#00a6ff"/>
<path d="m493.95 153.15h-86.382l33.409-75.11-17.714-25.127h-5.427l-42.329 95.156-97.08-95.156h-42.046l-100.02 93.347-41.523-93.347h-9.171l-15.204 22.377 34.622 77.86h-87.543l-17.546 25.828 5.103 5.542h113.96l106.92 240.36 28.85 31.401 1.349 1.474 1.223 1.318 0.021 0.021 0.586-0.648 26.968-29.697 108.64-244.23h113.14l5.239-5.772zm-236.55-76.919 0.01-0.01 77.85 76.93h-160.86zm0 339.71-104.01-231.42h205.9z" fill="#d7e9ff"/>
<polygon points="417.84 52.911 423.26 52.911 440.98 78.038 407.57 153.15 493.95 153.15 512 178.75 506.76 184.52 393.62 184.52 284.98 428.74 258.01 458.44 257.42 459.09 257.4 459.07 257.4 415.94 359.29 184.52 257.4 184.52 257.4 153.15 335.26 153.15 257.41 76.219 257.4 76.229 257.4 52.911 278.43 52.911 375.51 148.07" fill="#bdf"/>
</g>
</svg>
